<?xml version="1.0" encoding="UTF-8"?>
<svg version="1.1" xmlns="http://www.w3.org/2000/svg" width="543" height="142">
<path d="M0 0 C7.18571471 5.4772231 11.12204762 12.04437434 14.3125 20.375 C15.70662109 20.43107422 15.70662109 20.43107422 17.12890625 20.48828125 C26.76467448 21.00071522 33.45201338 21.92684106 40.734375 28.5859375 C45.33031779 33.79618948 47.07850412 39.95072829 46.7578125 46.82421875 C45.49336475 54.0670642 41.80245314 59.81776317 36.0078125 64.2578125 C32.07991154 66.84624493 28.99633039 67.64264745 24.3125 67.375 C24.19390625 68.07786133 24.0753125 68.78072266 23.953125 69.50488281 C23.26231493 72.59983829 22.24357694 75.35446102 21.0625 78.296875 C20.6190625 79.40417969 20.175625 80.51148437 19.71875 81.65234375 C19.02265625 83.37130859 19.02265625 83.37130859 18.3125 85.125 C17.8484375 86.28644531 17.384375 87.44789062 16.90625 88.64453125 C13.44826321 97.23923679 13.44826321 97.23923679 12.3125 98.375 C10.47131971 98.46881302 8.62652359 98.49243954 6.78295898 98.48852539 C5.60181015 98.48844986 4.42066132 98.48837433 3.20372009 98.48829651 C1.9183284 98.48313522 0.63293671 98.47797394 -0.69140625 98.47265625 C-2.6536338 98.47053383 -2.6536338 98.47053383 -4.65550232 98.46836853 C-8.13912859 98.4645441 -11.62271339 98.45471446 -15.10632324 98.44366455 C-18.65876708 98.43344882 -22.21121759 98.42887056 -25.76367188 98.42382812 C-32.73829832 98.41309212 -39.71289717 98.3960166 -46.6875 98.375 C-47.31990703 96.80900536 -47.95079065 95.24239547 -48.58105469 93.67553711 C-48.93254578 92.80319931 -49.28403687 91.93086151 -49.6461792 91.03208923 C-51.20926658 87.0436328 -52.5882886 83.00234352 -53.9375 78.9375 C-54.3396875 77.75510742 -54.3396875 77.75510742 -54.75 76.54882812 C-55.00265625 75.79150391 -55.2553125 75.03417969 -55.515625 74.25390625 C-55.7415332 73.5791626 -55.96744141 72.90441895 -56.20019531 72.20922852 C-56.6875 70.375 -56.6875 70.375 -56.6875 67.375 C-57.79867187 67.43300781 -58.90984375 67.49101563 -60.0546875 67.55078125 C-76.786866 68.16993396 -76.786866 68.16993396 -83.6875 62.375 C-89.35313963 55.71845632 -91.05241059 50.11199561 -90.96875 41.453125 C-90.44225267 35.69090418 -88.03196091 32.01823001 -84.4375 27.625 C-76.24802251 20.92451842 -68.90801712 20.89591326 -58.6875 21.375 C-58.51734375 20.79492188 -58.3471875 20.21484375 -58.171875 19.6171875 C-55.0682833 9.61305682 -49.46296875 2.53077961 -40.46484375 -2.98828125 C-27.38043727 -9.71391075 -11.97578854 -8.05877459 0 0 Z M-43.6875 8.375 C-44.43 8.99375 -45.1725 9.6125 -45.9375 10.25 C-49.84258683 14.99189115 -51.82311869 20.58386867 -53.6875 26.375 C-54.66589844 26.41238281 -55.64429687 26.44976562 -56.65234375 26.48828125 C-68.71647132 26.67593568 -68.71647132 26.67593568 -79.26953125 31.73046875 C-82.39961869 35.23941404 -84.64797956 38.71725057 -84.71875 43.4765625 C-84.36482186 48.76778821 -83.22434059 52.2646177 -79.6875 56.375 C-72.85840138 61.75109891 -67.01434994 61.49771542 -58.6875 61.375 C-59.66182123 58.39422628 -60.64276443 55.41567422 -61.625 52.4375 C-62.04168945 51.16229492 -62.04168945 51.16229492 -62.46679688 49.86132812 C-62.73427734 49.05244141 -63.00175781 48.24355469 -63.27734375 47.41015625 C-63.52347412 46.6612915 -63.76960449 45.91242676 -64.02319336 45.14086914 C-64.54814269 43.37674019 -64.54814269 43.37674019 -65.6875 42.375 C-67.87042774 42.14018307 -70.05953174 41.96136677 -72.25 41.8125 C-73.44753906 41.72871094 -74.64507812 41.64492188 -75.87890625 41.55859375 C-77.26916016 41.46771484 -77.26916016 41.46771484 -78.6875 41.375 C-79.0175 39.725 -79.3475 38.075 -79.6875 36.375 C-73.7475 36.375 -67.8075 36.375 -61.6875 36.375 C-57.8125 46 -57.8125 46 -56.6875 49.375 C-28.6375 49.705 -0.5875 50.035 28.3125 50.375 C29.41441901 54.78267604 28.89956842 56.2672935 27.3125 60.375 C32.32394623 58.79997404 35.70039105 56.03386024 38.4375 51.51953125 C40.04023991 47.59138746 39.7466116 43.53975816 39.3125 39.375 C38.2654689 36.51811671 38.2654689 36.51811671 36.3125 34.375 C35.590625 33.488125 34.86875 32.60125 34.125 31.6875 C27.3238315 26.09542812 17.72628177 26.82405015 9.3125 26.375 C9.03277344 25.6015625 8.75304687 24.828125 8.46484375 24.03125 C4.18191425 12.90389618 -0.56976104 6.52801429 -11.5703125 1.5078125 C-23.76932153 -2.92541133 -34.13513388 0.04444815 -43.6875 8.375 Z M-53.6875 56.375 C-51.33724675 65.08402827 -51.33724675 65.08402827 -48.6796875 73.6640625 C-48.15955078 75.22833984 -48.15955078 75.22833984 -47.62890625 76.82421875 C-47.10103516 78.39623047 -47.10103516 78.39623047 -46.5625 80 C-46.20285156 81.08667969 -45.84320313 82.17335938 -45.47265625 83.29296875 C-45.12847656 84.32292969 -44.78429688 85.35289063 -44.4296875 86.4140625 C-44.1188623 87.34428223 -43.80803711 88.27450195 -43.48779297 89.23291016 C-42.87450045 91.32630537 -42.87450045 91.32630537 -41.6875 92.375 C-40.12202952 92.46826716 -38.55237228 92.49245582 -36.98413086 92.48852539 C-35.48268776 92.48841209 -35.48268776 92.48841209 -33.95091248 92.48829651 C-32.8623848 92.48313522 -31.77385712 92.47797394 -30.65234375 92.47265625 C-29.54395645 92.4712413 -28.43556915 92.46982635 -27.29359436 92.46836853 C-23.73736931 92.46275033 -20.18120617 92.45019475 -16.625 92.4375 C-14.22070403 92.43248734 -11.81640708 92.42792403 -9.41210938 92.42382812 C-3.50388496 92.41277499 2.4043031 92.39601917 8.3125 92.375 C10.17044168 87.73280651 12.02166643 83.08801308 13.86669922 78.44067383 C14.49538913 76.85986112 15.125913 75.2797765 15.75830078 73.70043945 C16.66661208 71.43108713 17.5683103 69.15920391 18.46875 66.88671875 C18.75310913 66.18036789 19.03746826 65.47401703 19.33044434 64.7462616 C20.49082702 61.80168503 21.3125 59.57059771 21.3125 56.375 C-3.4375 56.375 -28.1875 56.375 -53.6875 56.375 Z " fill="#067228" transform="translate(108.6875,12.625)"/>
<path d="M0 0 C4.93250362 3.11584492 7.79298706 7.21407919 9.33010864 12.81369019 C10.25827544 17.87965008 10.03283464 23.06253613 10.015625 28.1953125 C10.01849518 30.08305138 10.01849518 30.08305138 10.02142334 32.00892639 C10.02278132 34.66421411 10.02012614 37.31913081 10.01074219 39.97436523 C9.9993601 43.35779334 10.0059085 46.74090361 10.01788712 50.12432003 C10.02690251 53.3771618 10.02056697 56.62996656 10.015625 59.8828125 C10.01967346 61.08824203 10.02372192 62.29367157 10.02789307 63.53562927 C9.99348319 69.74702352 9.5916304 75.162233 7.75 81.10546875 C9.4 81.10546875 11.05 81.10546875 12.75 81.10546875 C12.75 85.72546875 12.75 90.34546875 12.75 95.10546875 C3.31925249 94.60249555 3.31925249 94.60249555 0.41015625 92.0625 C-3.10294975 89.47796827 -5.96414594 89.7590974 -10.125 90.04296875 C-17.36237233 90.50129006 -22.18503722 89.61316557 -28 84.85546875 C-34.05895288 77.4500819 -33.69169406 70.35189916 -33.6484375 61.10546875 C-33.65046192 59.74218592 -33.65337641 58.37890415 -33.65713501 57.015625 C-33.66154112 54.16786317 -33.65518316 51.32038494 -33.64111328 48.47265625 C-33.62402197 44.83790507 -33.63387245 41.20381864 -33.65183067 37.5690918 C-33.66271525 34.75678577 -33.65920091 31.94463514 -33.6514473 29.13232422 C-33.64849695 27.14550338 -33.65754497 25.15867629 -33.6668396 23.171875 C-33.60440239 15.12884583 -33.21164479 9.72525683 -28 3.35546875 C-20.12562105 -3.08720494 -9.38676861 -4.16537857 0 0 Z M-16.94548035 13.28173828 C-18.76465507 15.82496127 -18.62424486 17.61077213 -18.62231445 20.72265625 C-18.62854324 21.8739502 -18.63477203 23.02524414 -18.64118958 24.21142578 C-18.63197983 25.45520996 -18.62277008 26.69899414 -18.61328125 27.98046875 C-18.61377975 29.25647949 -18.61427826 30.53249023 -18.61479187 31.84716797 C-18.61244926 34.54750626 -18.60428305 37.24706305 -18.58618164 39.94726562 C-18.56349427 43.40754741 -18.56295071 46.86739258 -18.56969929 50.32772827 C-18.57384507 53.62867466 -18.56186649 56.92954356 -18.55078125 60.23046875 C-18.55169266 61.47425293 -18.55260406 62.71803711 -18.55354309 63.99951172 C-18.53924507 65.72645264 -18.53924507 65.72645264 -18.5246582 67.48828125 C-18.52005081 68.50293457 -18.51544342 69.51758789 -18.51069641 70.56298828 C-18.42498956 73.34883248 -18.42498956 73.34883248 -16.25 76.10546875 C-13.43444653 77.28344264 -13.43444653 77.28344264 -10.25 77.10546875 C-7.68337552 75.4542517 -6.68167421 74.70394569 -5.25 72.10546875 C-4.51345385 67.90821268 -4.59750538 63.75934592 -4.65625 59.5078125 C-4.65620972 58.28139542 -4.65616943 57.05497833 -4.65612793 55.79139709 C-4.66148431 53.20161813 -4.67907168 50.61183964 -4.70800781 48.0222168 C-4.74988337 44.05402076 -4.74907406 40.08752047 -4.7421875 36.11914062 C-4.75267908 33.60285277 -4.765617 31.08657367 -4.78125 28.5703125 C-4.78155212 26.78741066 -4.78155212 26.78741066 -4.78186035 24.9684906 C-4.79777222 23.86376907 -4.81368408 22.75904755 -4.83007812 21.62084961 C-4.83849731 20.6499791 -4.8469165 19.67910858 -4.85559082 18.67881775 C-5.3200918 15.64815011 -6.08345055 14.25938064 -8.25 12.10546875 C-12.84293579 11.48540813 -12.84293579 11.48540813 -16.94548035 13.28173828 Z " fill="#000000" transform="translate(310.25,23.89453125)"/>
<path d="M0 0 C4.95 0 9.9 0 15 0 C15 12.54 15 25.08 15 38 C19.95 38 24.9 38 30 38 C30 25.46 30 12.92 30 0 C34.95 0 39.9 0 45 0 C45 29.7 45 59.4 45 90 C40.05 90 35.1 90 30 90 C30 77.46 30 64.92 30 52 C25.05 52 20.1 52 15 52 C15 64.54 15 77.08 15 90 C10.05 90 5.1 90 0 90 C0 60.3 0 30.6 0 0 Z " fill="#000000" transform="translate(376,23)"/>
<path d="M0 0 C5.83641308 5.54980351 7.64932746 11.86009034 8.18771362 19.75137329 C8.26277813 22.81515916 8.27729965 25.87281805 8.265625 28.9375 C8.26849518 30.61767212 8.26849518 30.61767212 8.27142334 32.33178711 C8.27277786 34.6883161 8.26913295 37.04485274 8.26074219 39.40136719 C8.25003252 42.98910432 8.26066281 46.57634077 8.2734375 50.1640625 C8.27211578 52.46354276 8.26955312 54.76302271 8.265625 57.0625 C8.26967346 58.12525146 8.27372192 59.18800293 8.27789307 60.28295898 C8.22351968 69.00563164 7.80218839 77.06960832 2 84 C-5.01933975 89.41074106 -11.33642178 89.63669341 -20 89 C-24.6916588 87.84825705 -28.5530019 85.35124816 -32 82 C-35.24247623 76.55727204 -36.11630892 71.71034666 -36.16113281 65.45043945 C-36.17074036 64.36193192 -36.1803479 63.27342438 -36.19024658 62.15193176 C-36.19449646 60.98417709 -36.19874634 59.81642242 -36.203125 58.61328125 C-36.20882507 57.40109421 -36.21452515 56.18890717 -36.22039795 54.93998718 C-36.22983721 52.37544627 -36.23637766 49.81089328 -36.24023438 47.24633789 C-36.24992094 43.34434545 -36.28094784 39.44288411 -36.3125 35.54101562 C-36.31903248 33.04427395 -36.32428199 30.54752852 -36.328125 28.05078125 C-36.3404718 26.89314774 -36.3528186 25.73551422 -36.36553955 24.5428009 C-36.34568984 17.23900686 -36.31462862 8.90897901 -31.35601807 3.06123352 C-23.47377899 -4.31418309 -9.26106563 -6.16026241 0 0 Z M-21 16 C-21.44769295 18.6431638 -21.44769295 18.6431638 -21.38818359 21.4453125 C-21.39764008 22.50991699 -21.40709656 23.57452148 -21.4168396 24.67138672 C-21.41076691 25.8110791 -21.40469421 26.95077148 -21.3984375 28.125 C-21.40130768 29.30465332 -21.40417786 30.48430664 -21.40713501 31.69970703 C-21.40917435 34.19108562 -21.40365362 36.68248026 -21.39111328 39.17382812 C-21.37505878 42.98604149 -21.39096742 46.79719459 -21.41015625 50.609375 C-21.4081738 53.03125234 -21.40433008 55.45312902 -21.3984375 57.875 C-21.40451019 59.01469238 -21.41058289 60.15438477 -21.4168396 61.32861328 C-21.40738312 62.39321777 -21.39792664 63.45782227 -21.38818359 64.5546875 C-21.38579681 65.48780762 -21.38341003 66.42092773 -21.38095093 67.38232422 C-20.92107788 70.54230745 -19.87535658 72.43417138 -18 75 C-15.65127469 76.16977494 -15.65127469 76.16977494 -13 76 C-10.21491684 74.86250805 -10.21491684 74.86250805 -8 73 C-6.99510184 69.98530553 -6.86182875 67.93461805 -6.83886719 64.78173828 C-6.82925964 63.71698273 -6.8196521 62.65222717 -6.80975342 61.5552063 C-6.80550354 60.40519135 -6.80125366 59.25517639 -6.796875 58.0703125 C-6.79117493 56.88782928 -6.78547485 55.70534607 -6.77960205 54.48703003 C-6.77015035 51.98371272 -6.7636174 49.48038297 -6.75976562 46.97705078 C-6.75005638 43.14724039 -6.7190322 39.31796574 -6.6875 35.48828125 C-6.68097031 33.05729486 -6.67571971 30.62630462 -6.671875 28.1953125 C-6.6595282 27.04934601 -6.6471814 25.90337952 -6.63446045 24.72268677 C-6.63746155 23.65162689 -6.64046265 22.58056702 -6.64355469 21.47705078 C-6.63990906 20.53789825 -6.63626343 19.59874573 -6.63250732 18.63113403 C-7.07462218 15.46572821 -8.13073901 13.57118829 -10 11 C-11.92144295 10.21800061 -11.92144295 10.21800061 -14 10.375 C-14.680625 10.36210938 -15.36125 10.34921875 -16.0625 10.3359375 C-19.03843179 11.35591412 -19.62135295 13.25008203 -21 16 Z " fill="#000000" transform="translate(465,25)"/>
<path d="M0 0 C7.20394835 6.3953419 7.40352128 13.95340604 8 23 C3.05 23 -1.9 23 -7 23 C-7.33 19.37 -7.66 15.74 -8 12 C-10.97 12 -13.94 12 -17 12 C-19.3353669 16.39598474 -19.36113968 20.29631477 -18 25 C-15.42668589 30.35702101 -15.42668589 30.35702101 -11 34 C-11 34.66 -11 35.32 -11 36 C-10.13181641 36.38285156 -10.13181641 36.38285156 -9.24609375 36.7734375 C-2.06754859 40.69354738 3.86287634 48.37186806 6.74609375 55.96484375 C9.11814197 64.22611514 8.64302075 72.1998225 5 80 C2.45458791 84.42554602 -0.80261586 87.00373223 -5.62890625 88.52734375 C-12.79566369 89.9559725 -19.90394252 90.06120349 -26.31640625 86.26171875 C-31.3508558 82.4888018 -33.89140466 78.24844644 -35 72 C-35.1461552 67.98325192 -35.09039416 64.02254032 -35 60 C-30.38 60 -25.76 60 -21 60 C-20.51171875 63.35286458 -20.0234375 66.70572917 -19.53515625 70.05859375 C-19.31014787 72.87955676 -19.31014787 72.87955676 -18 74 C-15.32941149 74.14115161 -12.67567762 74.04247107 -10 74 C-7.38656345 69.45711225 -7.67228239 65.98095272 -9 61 C-12.02115656 54.27703105 -17.2842661 49.74973878 -22.66503906 44.94360352 C-30.28532063 38.11241145 -33.54633544 32.29143051 -35 22 C-35.23278221 14.99791125 -34.07960832 8.79085341 -30 3 C-22.40670121 -4.59329879 -9.17321877 -5.58732416 0 0 Z " fill="#000000" transform="translate(361,25)"/>
<path d="M0 0 C27 0 27 0 37 5 C42.8766787 12.02334771 42.21136891 18.9807437 42.25 27.75 C42.270625 28.905 42.29125 30.06 42.3125 31.25 C42.34917563 39.28196303 41.88098622 45.41823334 36.6875 51.875 C29.78092348 57.33601399 23.94643759 56 15 56 C15 67.22 15 78.44 15 90 C10.05 90 5.1 90 0 90 C0 60.3 0 30.6 0 0 Z M15 14 C15 23.57 15 33.14 15 43 C17.97 43 20.94 43 24 43 C27.36744388 39.63255612 27.38214923 39.2519932 27.3984375 34.78125 C27.40230469 33.76675781 27.40617187 32.75226562 27.41015625 31.70703125 C27.39275391 30.11955078 27.39275391 30.11955078 27.375 28.5 C27.38660156 27.44167969 27.39820313 26.38335937 27.41015625 25.29296875 C27.40628906 24.27847656 27.40242188 23.26398437 27.3984375 22.21875 C27.39505371 21.28998047 27.39166992 20.36121094 27.38818359 19.40429688 C27.17431267 16.58895153 27.17431267 16.58895153 24 14 C21.03 14 18.06 14 15 14 Z " fill="#000000" transform="translate(481,23)"/>
<path d="M0 0 C12.87 0 25.74 0 39 0 C39 4.62 39 9.24 39 14 C31.08 14 23.16 14 15 14 C15 21.92 15 29.84 15 38 C21.27 38 27.54 38 34 38 C34 42.29 34 46.58 34 51 C27.73 51 21.46 51 15 51 C15 59.58 15 68.16 15 77 C22.92 77 30.84 77 39 77 C39 81.29 39 85.58 39 90 C26.13 90 13.26 90 0 90 C0 60.3 0 30.6 0 0 Z " fill="#000000" transform="translate(231,23)"/>
<path d="M0 0 C14.85 0 29.7 0 45 0 C45 4.29 45 8.58 45 13 C44.67 13.33 44.34 13.66 44 14 C39.38 14 34.76 14 30 14 C30 39.08 30 64.16 30 90 C25.05 90 20.1 90 15 90 C15 64.92 15 39.84 15 14 C10.05 14 5.1 14 0 14 C0 9.38 0 4.76 0 0 Z " fill="#000000" transform="translate(181,23)"/>
<path d="M0 0 C2.72493174 2.98039409 3 4.51540077 3 8.5625 C1.79482295 12.7052961 0.74785043 13.91786087 -3 16 C-7.62544464 16.67454401 -10.27301456 15.76861776 -14 13 C-15.56935594 9.86128812 -15.35201103 7.46144178 -15 4 C-10.26001346 -1.89295624 -7.02132075 -2.75837601 0 0 Z M-8 5 C-7.67 6.65 -7.34 8.3 -7 10 C-6.01 9.67 -5.02 9.34 -4 9 C-4.33 7.68 -4.66 6.36 -5 5 C-5.99 5 -6.98 5 -8 5 Z " fill="#08722A" transform="translate(81,118)"/>
<path d="M0 0 C2.34054066 3.21824341 3 5.15227464 3 9.125 C1.71224763 12.82728805 0.3795917 14.04734702 -3 16 C-7.62544464 16.67454401 -10.27301456 15.76861776 -14 13 C-15.56935594 9.86128812 -15.35201103 7.46144178 -15 4 C-10.29863039 -1.844946 -6.97102849 -2.86310099 0 0 Z M-8 5 C-8.33 5.99 -8.66 6.98 -9 8 C-7.02 8.99 -7.02 8.99 -5 10 C-4.67 8.68 -4.34 7.36 -4 6 C-5.32 5.67 -6.64 5.34 -8 5 Z " fill="#037627" transform="translate(118,118)"/>
<path d="M0 0 C0.33 0 0.66 0 1 0 C1 1.65 1 3.3 1 5 C0.34 5 -0.32 5 -1 5 C-0.67 5.99 -0.34 6.98 0 8 C0.66 8.33 1.32 8.66 2 9 C2.33 8.34 2.66 7.68 3 7 C5.475 7.99 5.475 7.99 8 9 C8 9.33 8 9.66 8 10 C6.35 10 4.7 10 3 10 C2.87310791 10.72018311 2.74621582 11.44036621 2.61547852 12.18237305 C2.00964917 14.95582664 1.17485347 17.43649023 0.15234375 20.08203125 C-0.20537109 21.01337891 -0.56308594 21.94472656 -0.93164062 22.90429688 C-1.30482422 23.86400391 -1.67800781 24.82371094 -2.0625 25.8125 C-2.62807617 27.28106445 -2.62807617 27.28106445 -3.20507812 28.77929688 C-4.13315595 31.1876001 -5.06490116 33.59441614 -6 36 C-7.31538327 31.84228506 -6.34433068 29.1120703 -5 25 C-6.65 25.66 -8.3 26.32 -10 27 C-7.58650007 17.64481454 -3.75743534 8.873724 0 0 Z " fill="#08722A" transform="translate(130,70)"/>
<path d="M0 0 C3.57101341 5.35652011 4.96420914 11.89262741 7 18 C31.75 18.495 31.75 18.495 57 19 C57.66 16.69 58.32 14.38 59 12 C59.99 13.485 59.99 13.485 61 15 C60.34 15 59.68 15 59 15 C58.67 16.98 58.34 18.96 58 21 C50.48828067 20.93318812 42.97708958 20.84345714 35.46582031 20.73754883 C32.90891799 20.70423043 30.3519409 20.67622035 27.79492188 20.65356445 C24.12597691 20.62014577 20.45772159 20.56783588 16.7890625 20.51171875 C15.64007477 20.50532883 14.49108704 20.4989389 13.30728149 20.49235535 C12.2463327 20.47256119 11.18538391 20.45276703 10.09228516 20.43237305 C9.15518707 20.42126999 8.21808899 20.41016693 7.25259399 20.39872742 C6.13755997 20.20135735 6.13755997 20.20135735 5 20 C4.34 19.01 3.68 18.02 3 17 C2.79029441 21.14093698 2.79029441 21.14093698 4 25 C1 24 1 24 0.10864258 22.26586914 C-0.12701416 21.52973389 -0.3626709 20.79359863 -0.60546875 20.03515625 C-0.86650391 19.23529297 -1.12753906 18.43542969 -1.39648438 17.61132812 C-1.65751953 16.77021484 -1.91855469 15.92910156 -2.1875 15.0625 C-2.46013672 14.22525391 -2.73277344 13.38800781 -3.01367188 12.52539062 C-5 6.33740602 -5 6.33740602 -5 4 C-4.34 4 -3.68 4 -3 4 C-1.375 6 -1.375 6 0 8 C0 5.36 0 2.72 0 0 Z " fill="#146A30" transform="translate(60,86)"/>
<path d="M0 0 C1.29461655 0.0199855 2.58923309 0.03997101 3.92308044 0.06056213 C4.63523712 0.07016968 5.3473938 0.07977722 6.08113098 0.0896759 C8.44578091 0.12277716 10.81025242 0.16306666 13.17478943 0.2033844 C14.81003176 0.22767467 16.44528078 0.25151876 18.08053589 0.27493286 C22.39279267 0.33788268 26.7049317 0.40691822 31.01707458 0.47718811 C35.41399251 0.54777341 39.81099418 0.61264895 44.20799255 0.67799377 C52.8415488 0.80714649 61.47498905 0.94272341 70.10838318 1.08229065 C70.10838318 1.74229065 70.10838318 2.40229065 70.10838318 3.08229065 C60.75530707 3.12856963 51.40227019 3.16413718 42.04910469 3.18591499 C37.70635569 3.19636565 33.36368485 3.21054812 29.02098083 3.23316956 C24.83239343 3.25485239 20.64388134 3.26684961 16.45524216 3.27204514 C14.85479928 3.27574912 13.25436067 3.28298178 11.65394974 3.29375076 C9.41747786 3.30820528 7.18131981 3.31027116 4.94480896 3.30934143 C3.67017792 3.31378265 2.39554688 3.31822388 1.08229065 3.32279968 C-1.89161682 3.08229065 -1.89161682 3.08229065 -3.89161682 1.08229065 C-2.89161682 0.08229065 -2.89161682 0.08229065 0 0 Z " fill="#166C32" transform="translate(59.89161682128906,65.91770935058594)"/>
<path d="M0 0 C0 0.33 0 0.66 0 1 C-3.96 1 -7.92 1 -12 1 C-12 1.66 -12 2.32 -12 3 C-12.66 3.66 -13.32 4.32 -14 5 C-9.71 5 -5.42 5 -1 5 C-1 5.33 -1 5.66 -1 6 C-2.28583984 6.14695312 -2.28583984 6.14695312 -3.59765625 6.296875 C-10.32309509 7.17641379 -15.4087242 8.09910991 -21 12 C-20.42655063 9.13275314 -20.1385485 8.1385485 -18 6 C-19.98 6.33 -21.96 6.66 -24 7 C-24.268125 7.969375 -24.53625 8.93875 -24.8125 9.9375 C-25.204375 10.948125 -25.59625 11.95875 -26 13 C-26.99 13.33 -27.98 13.66 -29 14 C-27.19334062 8.25153835 -23.63469368 4.77208888 -18.5625 1.6875 C-12.761042 -1.09585846 -6.2690103 -0.31697243 0 0 Z " fill="#0E6D2F" transform="translate(49,34)"/>
<path d="M0 0 C5.90693899 0.30291995 10.65233838 3.11608895 15 7 C15 7.99 15 8.98 15 10 C14.01 10 13.02 10 12 10 C12 9.34 12 8.68 12 8 C10.35 7.67 8.7 7.34 7 7 C7 7.66 7 8.32 7 9 C7.721875 9.2475 8.44375 9.495 9.1875 9.75 C12.29567538 11.13141128 14.52723148 12.66853254 17 15 C17 15.99 17 16.98 17 18 C17.66 18 18.32 18 19 18 C19.33 19.98 19.66 21.96 20 24 C19.443125 23.29875 18.88625 22.5975 18.3125 21.875 C17.549375 20.92625 16.78625 19.9775 16 19 C15.34 18.030625 14.68 17.06125 14 16.0625 C10.2232005 11.44641172 4.3156433 9.3907678 -1 7 C-1 6.67 -1 6.34 -1 6 C2.465 5.505 2.465 5.505 6 5 C5.67 4.01 5.34 3.02 5 2 C3.35 1.67 1.7 1.34 0 1 C0 0.67 0 0.34 0 0 Z " fill="#106B2C" transform="translate(95,7)"/>
<path d="M0 0 C2.34054066 3.21824341 3 5.15227464 3 9.125 C1.71224763 12.82728805 0.3795917 14.04734702 -3 16 C-7.62544464 16.67454401 -10.27301456 15.76861776 -14 13 C-15.56935594 9.86128812 -15.35201103 7.46144178 -15 4 C-10.29863039 -1.844946 -6.97102849 -2.86310099 0 0 Z M-10 0 C-10.33 0.99 -10.66 1.98 -11 3 C-11.99 3.495 -11.99 3.495 -13 4 C-13 6.31 -13 8.62 -13 11 C-9.66096995 13.35561737 -9.66096995 13.35561737 -6 15 C-3.14140068 13.99419654 -1.15205506 13.15205506 1 11 C1.26086657 7.0870015 1.26096366 4.27044591 -1 1 C-3.18541552 0.3006486 -3.18541552 0.3006486 -5.625 0.25 C-6.85089844 0.16492188 -6.85089844 0.16492188 -8.1015625 0.078125 C-8.72804688 0.05234375 -9.35453125 0.0265625 -10 0 Z " fill="#136831" transform="translate(118,118)"/>
<path d="M0 0 C2 1 2 1 2.8515625 2.9609375 C3.10679688 3.75757813 3.36203125 4.55421875 3.625 5.375 C4.01558594 6.56222656 4.01558594 6.56222656 4.4140625 7.7734375 C5 10 5 10 5 13 C3.68 13 2.36 13 1 13 C1.33 15.31 1.66 17.62 2 20 C0 19 0 19 -1.0703125 16.27734375 C-2.046875 13.18489583 -3.0234375 10.09244792 -4 7 C-8.29 6.67 -12.58 6.34 -17 6 C-16.67 5.34 -16.34 4.68 -16 4 C-12.04 4 -8.08 4 -4 4 C-3.34 5.32 -2.68 6.64 -2 8 C-1.01 8.33 -0.02 8.66 1 9 C0.67 6.03 0.34 3.06 0 0 Z " fill="#126B30" transform="translate(47,49)"/>
<path d="M0 0 C1.24452234 3.73356702 0.57603411 4.7361346 -0.87109375 8.32421875 C-1.28037109 9.35224609 -1.68964844 10.38027344 -2.11132812 11.43945312 C-2.54896484 12.51130859 -2.98660156 13.58316406 -3.4375 14.6875 C-4.0881543 16.31268555 -4.0881543 16.31268555 -4.75195312 17.97070312 C-5.82628416 20.65062779 -6.90924853 23.32672595 -8 26 C-9.31538327 21.84228506 -8.34433068 19.1120703 -7 15 C-8.65 15.66 -10.3 16.32 -12 17 C-11.54965877 15.37276701 -11.08944646 13.74826336 -10.625 12.125 C-10.24214844 10.76761719 -10.24214844 10.76761719 -9.8515625 9.3828125 C-9 7 -9 7 -7 5 C-7 6.65 -7 8.3 -7 10 C-3.88403088 9.33372488 -3.88403088 9.33372488 -2.83203125 6.93359375 C-2.49558594 6.10988281 -2.15914062 5.28617187 -1.8125 4.4375 C-1.46832031 3.61121094 -1.12414062 2.78492187 -0.76953125 1.93359375 C-0.51558594 1.29550781 -0.26164063 0.65742187 0 0 Z " fill="#0E692D" transform="translate(132,80)"/>
<path d="M0 0 C0.8971875 0.309375 0.8971875 0.309375 1.8125 0.625 C1.35875 1.016875 0.905 1.40875 0.4375 1.8125 C-1.46392919 3.93332487 -2.24954028 5.95542235 -3.1875 8.625 C-3.8475 8.625 -4.5075 8.625 -5.1875 8.625 C-5.1875 9.285 -5.1875 9.945 -5.1875 10.625 C-6.8375 10.625 -8.4875 10.625 -10.1875 10.625 C-10.1875 9.965 -10.1875 9.305 -10.1875 8.625 C-9.5275 8.295 -8.8675 7.965 -8.1875 7.625 C-7.713125 6.655625 -7.23875 5.68625 -6.75 4.6875 C-5.08346252 1.42108653 -3.946415 -0.67652829 0 0 Z " fill="#037725" transform="translate(30.1875,39.375)"/>
<path d="M0 0 C0.47308594 0.33773437 0.94617188 0.67546875 1.43359375 1.0234375 C6.48779448 4.43231362 10.98870682 6.06769296 17 7 C17 7.33 17 7.66 17 8 C11.555 8.495 11.555 8.495 6 9 C5.34 8.01 4.68 7.02 4 6 C4.33 7.65 4.66 9.3 5 11 C2.525 10.01 2.525 10.01 0 9 C0.99 8.67 1.98 8.34 3 8 C2.37063561 5.06296616 1.37579827 2.66211372 0 0 Z " fill="#0A6B2B" transform="translate(27,67)"/>
<path d="M0 0 C5.70709064 0.46588495 9.15939723 1.93757784 14 5 C13.67 5.99 13.34 6.98 13 8 C11.68 8 10.36 8 9 8 C9 7.01 9 6.02 9 5 C4.545 4.01 4.545 4.01 0 3 C0 2.01 0 1.02 0 0 Z " fill="#037623" transform="translate(133,36)"/>
<path d="M0 0 C0.99 0.33 1.98 0.66 3 1 C4.62323754 4.75907641 5.23994929 7.92086213 5 12 C4.01 12 3.02 12 2 12 C1.87625 11.195625 1.7525 10.39125 1.625 9.5625 C1.315625 8.2940625 1.315625 8.2940625 1 7 C0.34 6.67 -0.32 6.34 -1 6 C-0.67 4.02 -0.34 2.04 0 0 Z " fill="#027628" transform="translate(56,83)"/>
<path d="M0 0 C0.33 0.99 0.66 1.98 1 3 C0.34 3 -0.32 3 -1 3 C-1 2.34 -1 1.68 -1 1 C-2.32 1.33 -3.64 1.66 -5 2 C-5 2.99 -5 3.98 -5 5 C-6.32 5 -7.64 5 -9 5 C-9 3.68 -9 2.36 -9 1 C-6.04335481 -0.4783226 -3.25770263 -0.06032783 0 0 Z " fill="#0A712B" transform="translate(81,118)"/>
<path d="M0 0 C6.0546875 -0.1953125 6.0546875 -0.1953125 8 0 C8.66 0.66 9.32 1.32 10 2 C7.04335481 3.4783226 4.25770263 3.06032783 1 3 C0.67 2.01 0.34 1.02 0 0 Z " fill="#007926" transform="translate(118,36)"/>
<path d="M0 0 C0.78375 0.04125 1.5675 0.0825 2.375 0.125 C-0.79820782 3.66086014 -2.79243695 5.71078031 -7.625 6.125 C-7.295 5.465 -6.965 4.805 -6.625 4.125 C-5.965 4.125 -5.305 4.125 -4.625 4.125 C-4.625 3.465 -4.625 2.805 -4.625 2.125 C-2.625 0.125 -2.625 0.125 0 0 Z " fill="#10682B" transform="translate(145.625,72.875)"/>
<path d="M0 0 C0.66 0.33 1.32 0.66 2 1 C2 1.66 2 2.32 2 3 C3.65 2.34 5.3 1.68 7 1 C6.67 2.32 6.34 3.64 6 5 C3.36 5 0.72 5 -2 5 C-1.34 3.35 -0.68 1.7 0 0 Z " fill="#0E6F2F" transform="translate(136,69)"/>
<path d="M0 0 C0.66 0 1.32 0 2 0 C1.67 0.66 1.34 1.32 1 2 C0.67 1.34 0.34 0.68 0 0 Z M0 2 C0.99 2.33 1.98 2.66 3 3 C3.33 4.98 3.66 6.96 4 9 C3.01 9.33 2.02 9.66 1 10 C0.67 7.36 0.34 4.72 0 2 Z " fill="#017725" transform="translate(116,26)"/>
</svg>
